<?xml version="1.0" encoding="UTF-8"?>
<!DOCTYPE svg PUBLIC "-//W3C//DTD SVG 1.1//EN" "http://www.w3.org/Graphics/SVG/1.1/DTD/svg11.dtd">
<!-- Creator: CorelDRAW -->
<svg xmlns="http://www.w3.org/2000/svg" xml:space="preserve" width="135.257mm" height="51.5792mm" version="1.1" style="shape-rendering:geometricPrecision; text-rendering:geometricPrecision; image-rendering:optimizeQuality; fill-rule:evenodd; clip-rule:evenodd"
viewBox="0 0 6937.81 2645.68"
 xmlns:xlink="http://www.w3.org/1999/xlink"
 xmlns:xodm="http://www.corel.com/coreldraw/odm/2003">
 <defs>
  <style type="text/css">
   <![CDATA[
    .str0 {stroke:#E80000;stroke-width:3.91;stroke-miterlimit:22.9256}
    .fil2 {fill:none;fill-rule:nonzero}
    .fil3 {fill:#E80000}
    .fil0 {fill:black;fill-rule:nonzero}
    .fil1 {fill:#E80000;fill-rule:nonzero}
   ]]>
  </style>
 </defs>
 <g id="Camada_x0020_1">
  <metadata id="CorelCorpID_0Corel-Layer"/>
  <path class="fil0" d="M3772.29 1578.75l-221.31 0 0 -299.44 -777.78 0 0 299.44 -221.31 0 0 -610.2c0,-88.87 15.39,-171.06 45.89,-245.71 30.79,-74.93 73.19,-139.41 127.79,-193.14 54.31,-54.02 118.79,-95.84 193.14,-126.05 74.36,-29.91 155.38,-45.02 243.39,-45.02l498.68 0c15.1,0 29.62,2.9 43.27,8.42 13.65,5.81 25.56,13.65 35.73,23.82 10.17,10.17 18.3,22.07 23.82,35.73 5.81,13.65 8.71,28.17 8.71,43.56l0 1108.59zm-999.09 -520.75l777.78 0 0 -478.35 -388.89 0c-6.97,0 -21.2,1.16 -42.98,3.2 -21.78,2.04 -47.05,6.97 -75.81,14.81 -28.46,7.84 -58.66,20.04 -90.62,36.59 -31.66,16.56 -60.99,39.21 -87.71,67.96 -26.43,29.04 -48.5,65.35 -65.93,108.62 -17.14,43.28 -25.85,95.85 -25.85,157.71l0 89.46z"/>
  <path id="_1" class="fil0" d="M5246.82 1068.17c0,74.35 -13.07,142.6 -38.63,205.05 -25.85,62.44 -61.57,116.17 -106.88,161.19 -45.31,45.31 -99.32,80.45 -161.77,106.01 -62.44,25.56 -130.12,38.34 -203.31,38.34l-597.42 0c-15.69,0 -30.49,-2.9 -44.15,-8.42 -13.65,-5.81 -25.27,-13.65 -35.43,-23.52 -9.88,-9.88 -17.72,-21.78 -23.24,-35.15 -5.81,-13.65 -8.42,-28.46 -8.42,-44.44l0 -997.06c0,-15.39 2.61,-29.91 8.42,-43.56 5.52,-13.65 13.36,-25.56 23.24,-35.73 10.16,-10.17 21.78,-18.01 35.43,-23.82 13.65,-5.52 28.46,-8.42 44.15,-8.42l597.42 0c73.19,0 140.86,12.78 203.31,38.34 62.44,25.56 116.46,60.7 161.77,105.72 45.31,45.31 81.03,99.04 106.88,161.77 25.56,62.73 38.63,130.98 38.63,204.75l0 198.95zm-221.31 -198.95c0,-43.27 -6.97,-82.77 -20.91,-118.49 -13.94,-35.73 -33.4,-66.22 -58.96,-91.49 -25.56,-24.98 -56.05,-44.73 -91.49,-58.67 -35.43,-13.94 -74.93,-20.91 -117.92,-20.91l-487.64 0 0 777.78 487.64 0c42.99,0 82.49,-6.97 117.92,-20.62 35.43,-13.94 65.93,-33.69 91.49,-58.96 25.56,-25.27 45.02,-55.47 58.96,-90.91 13.94,-35.43 20.91,-74.93 20.91,-118.79l0 -198.95z"/>
  <path id="_2" class="fil0" d="M6883.71 1578.75l-222.77 0 0 -726.66 -392.37 690.07c-9.58,17.72 -23.24,30.79 -40.37,40.08 -17.43,9.01 -36.01,13.65 -55.77,13.65 -19.46,0 -37.46,-4.65 -54.02,-13.65 -16.85,-9.29 -29.92,-22.36 -39.5,-40.08l-394.12 -690.07 0 726.66 -221.31 0 0 -1125.72c0,-25.56 7.55,-48.21 22.65,-67.96 15.11,-20.04 34.85,-33.4 59.25,-40.08 11.91,-2.9 23.82,-3.78 35.73,-2.9 11.91,0.87 23.24,3.19 34.27,7.55 11.04,4.35 21.2,10.16 30.21,18 9.29,7.55 16.84,16.84 22.94,27.59l503.9 875.37 503.61 -875.37c13.07,-21.49 31.07,-36.89 54.02,-45.89 22.95,-9.29 47.05,-10.75 72.03,-4.35 23.82,6.68 43.27,20.04 58.66,40.08 15.39,19.75 22.95,42.4 22.95,67.96l0 1125.72z"/>
  <path class="fil1" d="M3025.35 2155.34l-323.22 0 0 -103.04 323.22 0 0 103.04zm45.95 230.66l-369.17 0c-14.11,0 -29.56,-2.55 -46.35,-7.52 -16.79,-4.97 -32.38,-13.16 -46.75,-24.58 -14.24,-11.42 -26.2,-26.2 -35.74,-44.47 -9.67,-18.27 -14.37,-40.57 -14.37,-67.04l0 -369.16c0,-7.12 1.34,-13.84 3.89,-20.15 2.69,-6.31 6.18,-11.82 10.88,-16.52 4.57,-4.7 9.94,-8.33 16.25,-11.02 6.31,-2.55 13.17,-3.89 20.55,-3.89l460.79 0 0 102.23 -410.01 0 0 318.52c0,13.3 3.49,23.51 10.61,30.63 6.99,7.12 17.47,10.61 31.03,10.61l368.36 0 0 102.37z"/>
  <path id="_1_0" class="fil1" d="M3710.48 2219.96c0,20.15 -2.55,38.29 -7.66,54.41 -5.1,16.25 -11.82,30.36 -20.15,42.72 -8.46,12.36 -18.27,22.84 -29.56,31.57 -11.28,8.6 -22.97,15.72 -35.06,21.23 -12.09,5.51 -24.31,9.54 -36.81,12.22 -12.5,2.55 -24.18,3.9 -35.2,3.9l-394.83 0 0 -102.37 394.83 0c19.61,0 34.93,-5.78 45.81,-17.33 10.88,-11.55 16.39,-27 16.39,-46.34 0,-9.54 -1.48,-18.14 -4.3,-26.06 -2.95,-7.79 -7.12,-14.64 -12.5,-20.42 -5.37,-5.78 -11.95,-10.21 -19.61,-13.43 -7.79,-3.09 -16.39,-4.7 -25.8,-4.7l-235.37 0c-16.52,0 -34.39,-2.95 -53.46,-8.87 -19.21,-5.91 -36.95,-15.31 -53.33,-28.48 -16.53,-13.17 -30.09,-30.36 -40.97,-51.59 -10.88,-21.23 -16.39,-47.15 -16.39,-77.92 0,-30.76 5.5,-56.56 16.39,-77.78 10.88,-21.09 24.45,-38.29 40.97,-51.45 16.39,-13.3 34.12,-22.84 53.33,-28.75 19.08,-5.91 36.94,-8.86 53.46,-8.86l348.34 0 0 102.23 -348.34 0c-19.48,0 -34.53,5.91 -45.4,17.73 -10.88,11.82 -16.39,27.41 -16.39,46.88 0,19.61 5.51,35.2 16.39,46.62 10.88,11.42 25.93,17.2 45.4,17.2l235.37 0 0.81 0c11.02,0.27 22.7,1.74 34.93,4.43 12.36,2.82 24.72,7.12 36.81,12.76 12.22,5.78 23.91,13.17 34.93,21.9 11.02,8.87 20.83,19.35 29.29,31.7 8.46,12.36 15.32,26.47 20.29,42.45 4.97,15.99 7.39,34.13 7.39,54.41z"/>
  <polygon id="_2_1" class="fil1" points="4299.7,1923.87 4074.28,1923.87 4074.28,2386 3971.91,2386 3971.91,1923.87 3745.95,1923.87 3745.95,1821.64 4299.7,1821.64 "/>
  <path id="_3" class="fil1" d="M4959.44 2157.76c0,34.39 -5.91,65.96 -17.73,94.85 -11.82,28.88 -28.21,53.74 -49.17,74.69 -21.09,21.09 -45.94,37.35 -74.69,49.03 -28.62,11.69 -59.92,17.6 -93.77,17.6l-138.64 0c-33.85,0 -65.15,-5.91 -94.04,-17.6 -28.88,-11.68 -53.74,-27.94 -74.69,-49.03 -21.09,-20.96 -37.48,-45.81 -49.44,-74.69 -11.96,-28.88 -17.87,-60.45 -17.87,-94.85l0 -107.88c0,-34.12 5.91,-65.69 17.87,-94.71 11.96,-28.88 28.34,-53.87 49.44,-74.69 20.95,-20.82 45.81,-37.21 74.69,-49.03 28.88,-11.82 60.18,-17.74 94.04,-17.74l138.64 0c33.85,0 65.15,5.91 93.77,17.74 28.74,11.82 53.6,28.21 74.69,49.03 20.96,20.83 37.35,45.81 49.17,74.69 11.82,29.02 17.73,60.59 17.73,94.71l0 107.88zm-102.37 -107.88c0,-20.15 -3.22,-38.55 -9.67,-54.95 -6.45,-16.39 -15.44,-30.36 -27.13,-42.05 -11.69,-11.69 -25.66,-20.69 -42.18,-27.14 -16.39,-6.45 -34.39,-9.67 -54,-9.67l-138.64 0c-19.88,0 -38.02,3.22 -54.41,9.67 -16.39,6.45 -30.49,15.45 -42.32,27.14 -11.82,11.68 -20.96,25.66 -27.41,42.05 -6.45,16.39 -9.67,34.8 -9.67,54.95l0 107.88c0,20.15 3.23,38.42 9.67,54.81 6.45,16.39 15.58,30.49 27.41,42.18 11.82,11.68 25.93,20.69 42.32,27.13 16.39,6.45 34.53,9.67 54.41,9.67l137.83 0c19.89,0 38.02,-3.22 54.55,-9.67 16.39,-6.45 30.49,-15.45 42.18,-27.13 11.82,-11.69 20.95,-25.8 27.4,-42.18 6.45,-16.39 9.67,-34.66 9.67,-54.81l0 -107.88z"/>
  <path id="_4" class="fil1" d="M5652.91 2157.76c0,26.2 -3.49,50.92 -10.48,74.15 -6.98,23.24 -16.79,44.33 -29.55,63.14 -12.63,18.94 -28.08,35.46 -46.08,49.57 -17.87,14.24 -37.89,25.39 -59.92,33.45l119.57 94.84 -148.32 0 -98.47 -78.99 -100.76 0c-33.85,0 -65.15,-5.91 -94.04,-17.6 -28.88,-11.68 -53.74,-27.94 -74.69,-49.03 -21.09,-20.96 -37.48,-45.81 -49.44,-74.69 -11.96,-28.88 -17.87,-60.45 -17.87,-94.85l0 -107.88c0,-34.12 5.91,-65.69 17.87,-94.71 11.96,-28.88 28.34,-53.87 49.44,-74.69 20.95,-20.82 45.81,-37.21 74.69,-49.03 28.88,-11.82 60.18,-17.74 94.04,-17.74l138.64 0c33.85,0 65.15,5.91 93.77,17.74 28.74,11.82 53.6,28.21 74.69,49.03 20.96,20.83 37.35,45.81 49.17,74.69 11.82,29.02 17.73,60.59 17.73,94.71l0 107.88zm-102.37 -107.88c0,-20.15 -3.22,-38.55 -9.67,-54.95 -6.45,-16.39 -15.44,-30.36 -27.13,-42.05 -11.69,-11.69 -25.66,-20.69 -42.18,-27.14 -16.39,-6.45 -34.39,-9.67 -54,-9.67l-138.64 0c-19.88,0 -38.02,3.22 -54.41,9.67 -16.39,6.45 -30.49,15.45 -42.32,27.14 -11.82,11.68 -20.96,25.66 -27.41,42.05 -6.45,16.39 -9.67,34.8 -9.67,54.95l0 107.88c0,20.15 3.23,38.42 9.67,54.81 6.45,16.39 15.58,30.49 27.41,42.18 11.82,11.68 25.93,20.69 42.32,27.13 16.39,6.45 34.53,9.67 54.41,9.67l137.83 0c19.89,0 38.02,-3.22 54.55,-9.67 16.39,-6.45 30.49,-15.45 42.18,-27.13 11.82,-11.69 20.95,-25.8 27.4,-42.18 6.45,-16.39 9.67,-34.66 9.67,-54.81l0 -107.88z"/>
  <path id="_5" class="fil1" d="M6307 2334.42c0,7.39 -1.34,14.24 -4.03,20.55 -2.55,6.18 -6.31,11.69 -11.02,16.25 -4.7,4.57 -10.21,8.2 -16.52,10.88 -6.31,2.55 -12.9,3.9 -20.02,3.9l-230.66 0c-21.76,0 -43.79,-2.42 -66.09,-7.12 -22.3,-4.7 -43.93,-11.96 -64.75,-21.76 -20.83,-9.94 -40.44,-22.44 -58.84,-37.61 -18.4,-15.18 -34.39,-33.32 -48.23,-54.14 -13.71,-20.83 -24.58,-44.74 -32.51,-71.61 -7.79,-26.87 -11.82,-56.96 -11.82,-90l0 -282.11 102.37 0 0 282.11c0,28.88 4.03,53.33 12.09,73.22 7.93,20.01 18.14,36.67 30.5,49.97 12.22,13.43 25.79,23.91 40.43,31.57 14.78,7.52 28.75,13.17 41.91,16.93 13.3,3.63 24.99,5.91 35.06,6.85 10.07,0.94 16.79,1.34 19.88,1.34l179.88 0 0 -462 102.37 0 0 512.78z"/>
  <path id="_6" class="fil1" d="M6889.91 2155.34l-323.22 0 0 -103.04 323.22 0 0 103.04zm45.95 230.66l-369.17 0c-14.11,0 -29.56,-2.55 -46.35,-7.52 -16.79,-4.97 -32.38,-13.16 -46.75,-24.58 -14.24,-11.42 -26.2,-26.2 -35.74,-44.47 -9.67,-18.27 -14.37,-40.57 -14.37,-67.04l0 -369.16c0,-7.12 1.34,-13.84 3.89,-20.15 2.69,-6.31 6.18,-11.82 10.88,-16.52 4.57,-4.7 9.94,-8.33 16.25,-11.02 6.31,-2.55 13.17,-3.89 20.55,-3.89l460.79 0 0 102.23 -410.01 0 0 318.52c0,13.3 3.49,23.51 10.61,30.63 6.99,7.12 17.47,10.61 31.03,10.61l368.36 0 0 102.37z"/>
  <path id="_7" class="fil2 str0" d="M3025.35 2155.34l-323.22 0 0 -103.04 323.22 0 0 103.04zm45.95 230.66l-369.17 0c-14.11,0 -29.56,-2.55 -46.35,-7.52 -16.79,-4.97 -32.38,-13.16 -46.75,-24.58 -14.24,-11.42 -26.2,-26.2 -35.74,-44.47 -9.67,-18.27 -14.37,-40.57 -14.37,-67.04l0 -369.16c0,-7.12 1.34,-13.84 3.89,-20.15 2.69,-6.31 6.18,-11.82 10.88,-16.52 4.57,-4.7 9.94,-8.33 16.25,-11.02 6.31,-2.55 13.17,-3.89 20.55,-3.89l460.79 0 0 102.23 -410.01 0 0 318.52c0,13.3 3.49,23.51 10.61,30.63 6.99,7.12 17.47,10.61 31.03,10.61l368.36 0 0 102.37z"/>
  <path id="_8" class="fil2 str0" d="M3710.48 2219.96c0,20.15 -2.55,38.29 -7.66,54.41 -5.1,16.25 -11.82,30.36 -20.15,42.72 -8.46,12.36 -18.27,22.84 -29.56,31.57 -11.28,8.6 -22.97,15.72 -35.06,21.23 -12.09,5.51 -24.31,9.54 -36.81,12.22 -12.5,2.55 -24.18,3.9 -35.2,3.9l-394.83 0 0 -102.37 394.83 0c19.61,0 34.93,-5.78 45.81,-17.33 10.88,-11.55 16.39,-27 16.39,-46.34 0,-9.54 -1.48,-18.14 -4.3,-26.06 -2.95,-7.79 -7.12,-14.64 -12.5,-20.42 -5.37,-5.78 -11.95,-10.21 -19.61,-13.43 -7.79,-3.09 -16.39,-4.7 -25.8,-4.7l-235.37 0c-16.52,0 -34.39,-2.95 -53.46,-8.87 -19.21,-5.91 -36.95,-15.31 -53.33,-28.48 -16.53,-13.17 -30.09,-30.36 -40.97,-51.59 -10.88,-21.23 -16.39,-47.15 -16.39,-77.92 0,-30.76 5.5,-56.56 16.39,-77.78 10.88,-21.09 24.45,-38.29 40.97,-51.45 16.39,-13.3 34.12,-22.84 53.33,-28.75 19.08,-5.91 36.94,-8.86 53.46,-8.86l348.34 0 0 102.23 -348.34 0c-19.48,0 -34.53,5.91 -45.4,17.73 -10.88,11.82 -16.39,27.41 -16.39,46.88 0,19.61 5.51,35.2 16.39,46.62 10.88,11.42 25.93,17.2 45.4,17.2l235.37 0 0.81 0c11.02,0.27 22.7,1.74 34.93,4.43 12.36,2.82 24.72,7.12 36.81,12.76 12.22,5.78 23.91,13.17 34.93,21.9 11.02,8.87 20.83,19.35 29.29,31.7 8.46,12.36 15.32,26.47 20.29,42.45 4.97,15.99 7.39,34.13 7.39,54.41z"/>
  <polygon id="_9" class="fil2 str0" points="4299.7,1923.87 4074.28,1923.87 4074.28,2386 3971.91,2386 3971.91,1923.87 3745.95,1923.87 3745.95,1821.64 4299.7,1821.64 "/>
  <path id="_10" class="fil2 str0" d="M4959.44 2157.76c0,34.39 -5.91,65.96 -17.73,94.85 -11.82,28.88 -28.21,53.74 -49.17,74.69 -21.09,21.09 -45.94,37.35 -74.69,49.03 -28.62,11.69 -59.92,17.6 -93.77,17.6l-138.64 0c-33.85,0 -65.15,-5.91 -94.04,-17.6 -28.88,-11.68 -53.74,-27.94 -74.69,-49.03 -21.09,-20.96 -37.48,-45.81 -49.44,-74.69 -11.96,-28.88 -17.87,-60.45 -17.87,-94.85l0 -107.88c0,-34.12 5.91,-65.69 17.87,-94.71 11.96,-28.88 28.34,-53.87 49.44,-74.69 20.95,-20.82 45.81,-37.21 74.69,-49.03 28.88,-11.82 60.18,-17.74 94.04,-17.74l138.64 0c33.85,0 65.15,5.91 93.77,17.74 28.74,11.82 53.6,28.21 74.69,49.03 20.96,20.83 37.35,45.81 49.17,74.69 11.82,29.02 17.73,60.59 17.73,94.71l0 107.88zm-102.37 -107.88c0,-20.15 -3.22,-38.55 -9.67,-54.95 -6.45,-16.39 -15.44,-30.36 -27.13,-42.05 -11.69,-11.69 -25.66,-20.69 -42.18,-27.14 -16.39,-6.45 -34.39,-9.67 -54,-9.67l-138.64 0c-19.88,0 -38.02,3.22 -54.41,9.67 -16.39,6.45 -30.49,15.45 -42.32,27.14 -11.82,11.68 -20.96,25.66 -27.41,42.05 -6.45,16.39 -9.67,34.8 -9.67,54.95l0 107.88c0,20.15 3.23,38.42 9.67,54.81 6.45,16.39 15.58,30.49 27.41,42.18 11.82,11.68 25.93,20.69 42.32,27.13 16.39,6.45 34.53,9.67 54.41,9.67l137.83 0c19.89,0 38.02,-3.22 54.55,-9.67 16.39,-6.45 30.49,-15.45 42.18,-27.13 11.82,-11.69 20.95,-25.8 27.4,-42.18 6.45,-16.39 9.67,-34.66 9.67,-54.81l0 -107.88z"/>
  <path id="_11" class="fil2 str0" d="M5652.91 2157.76c0,26.2 -3.49,50.92 -10.48,74.15 -6.98,23.24 -16.79,44.33 -29.55,63.14 -12.63,18.94 -28.08,35.46 -46.08,49.57 -17.87,14.24 -37.89,25.39 -59.92,33.45l119.57 94.84 -148.32 0 -98.47 -78.99 -100.76 0c-33.85,0 -65.15,-5.91 -94.04,-17.6 -28.88,-11.68 -53.74,-27.94 -74.69,-49.03 -21.09,-20.96 -37.48,-45.81 -49.44,-74.69 -11.96,-28.88 -17.87,-60.45 -17.87,-94.85l0 -107.88c0,-34.12 5.91,-65.69 17.87,-94.71 11.96,-28.88 28.34,-53.87 49.44,-74.69 20.95,-20.82 45.81,-37.21 74.69,-49.03 28.88,-11.82 60.18,-17.74 94.04,-17.74l138.64 0c33.85,0 65.15,5.91 93.77,17.74 28.74,11.82 53.6,28.21 74.69,49.03 20.96,20.83 37.35,45.81 49.17,74.69 11.82,29.02 17.73,60.59 17.73,94.71l0 107.88zm-102.37 -107.88c0,-20.15 -3.22,-38.55 -9.67,-54.95 -6.45,-16.39 -15.44,-30.36 -27.13,-42.05 -11.69,-11.69 -25.66,-20.69 -42.18,-27.14 -16.39,-6.45 -34.39,-9.67 -54,-9.67l-138.64 0c-19.88,0 -38.02,3.22 -54.41,9.67 -16.39,6.45 -30.49,15.45 -42.32,27.14 -11.82,11.68 -20.96,25.66 -27.41,42.05 -6.45,16.39 -9.67,34.8 -9.67,54.95l0 107.88c0,20.15 3.23,38.42 9.67,54.81 6.45,16.39 15.58,30.49 27.41,42.18 11.82,11.68 25.93,20.69 42.32,27.13 16.39,6.45 34.53,9.67 54.41,9.67l137.83 0c19.89,0 38.02,-3.22 54.55,-9.67 16.39,-6.45 30.49,-15.45 42.18,-27.13 11.82,-11.69 20.95,-25.8 27.4,-42.18 6.45,-16.39 9.67,-34.66 9.67,-54.81l0 -107.88z"/>
  <path id="_12" class="fil2 str0" d="M6307 2334.42c0,7.39 -1.34,14.24 -4.03,20.55 -2.55,6.18 -6.31,11.69 -11.02,16.25 -4.7,4.57 -10.21,8.2 -16.52,10.88 -6.31,2.55 -12.9,3.9 -20.02,3.9l-230.66 0c-21.76,0 -43.79,-2.42 -66.09,-7.12 -22.3,-4.7 -43.93,-11.96 -64.75,-21.76 -20.83,-9.94 -40.44,-22.44 -58.84,-37.61 -18.4,-15.18 -34.39,-33.32 -48.23,-54.14 -13.71,-20.83 -24.58,-44.74 -32.51,-71.61 -7.79,-26.87 -11.82,-56.96 -11.82,-90l0 -282.11 102.37 0 0 282.11c0,28.88 4.03,53.33 12.09,73.22 7.93,20.01 18.14,36.67 30.5,49.97 12.22,13.43 25.79,23.91 40.43,31.57 14.78,7.52 28.75,13.17 41.91,16.93 13.3,3.63 24.99,5.91 35.06,6.85 10.07,0.94 16.79,1.34 19.88,1.34l179.88 0 0 -462 102.37 0 0 512.78z"/>
  <path id="_13" class="fil2 str0" d="M6889.91 2155.34l-323.22 0 0 -103.04 323.22 0 0 103.04zm45.95 230.66l-369.17 0c-14.11,0 -29.56,-2.55 -46.35,-7.52 -16.79,-4.97 -32.38,-13.16 -46.75,-24.58 -14.24,-11.42 -26.2,-26.2 -35.74,-44.47 -9.67,-18.27 -14.37,-40.57 -14.37,-67.04l0 -369.16c0,-7.12 1.34,-13.84 3.89,-20.15 2.69,-6.31 6.18,-11.82 10.88,-16.52 4.57,-4.7 9.94,-8.33 16.25,-11.02 6.31,-2.55 13.17,-3.89 20.55,-3.89l460.79 0 0 102.23 -410.01 0 0 318.52c0,13.3 3.49,23.51 10.61,30.63 6.99,7.12 17.47,10.61 31.03,10.61l368.36 0 0 102.37z"/>
  <path class="fil3" d="M1656.64 1673.4c268.5,0 486.13,217.67 486.13,486.14 0,268.46 -217.63,486.13 -486.13,486.13 -268.5,0 -486.14,-217.67 -486.14,-486.13 0,-268.46 217.64,-486.14 486.14,-486.14zm-282.08 563.75l197.67 160.68c34.69,27.25 69.36,28.87 104.04,0l317.9 -350.26c22.6,-55 -64.38,-129.91 -112.12,-98.27l-248.55 285.54c-12.74,9.73 -25.45,10.47 -38.15,1.16l-130.63 -109.82c-56.56,-39.34 -140.94,35.75 -90.17,110.97z"/>
  <path class="fil3" d="M195.65 274.2l230.55 0c-10.08,19.82 -15.77,42.19 -15.77,65.85l0 0.03c0,45.12 20.7,85.6 53.07,112.49 25.74,24.1 60.29,38.91 98.12,38.91l594.59 0c37.83,0 72.38,-14.81 98.12,-38.91 32.37,-26.88 53.07,-67.37 53.07,-112.49l0 -0.03c0,-23.66 -5.69,-46.03 -15.77,-65.85l223.29 0c107.6,0 195.63,88.03 195.63,195.63l0 1097.15c-17.77,-1.58 -35.73,-2.46 -53.91,-2.46 -44.9,0 -88.62,5.01 -130.69,14.44 -4.23,0.64 -8.44,1.32 -12.63,2.05l0 -877.24 -1308.6 0 0 1502.34 858.7 0c5.53,71.35 23.65,139.15 52.13,201.23l-919.91 0c-107.61,0 -195.65,-88.04 -195.65,-195.63l0 -1741.89c0,-107.6 88.03,-195.63 195.65,-195.63z"/>
  <path class="fil3" d="M862.2 0c76.62,0 138.73,62.12 138.73,138.75 0,6.05 -0.37,11.99 -1.13,17.83 6.53,28.92 20.95,40.97 40.79,41.67l76.51 0c68.69,0 124.88,56.19 124.88,124.87l0 0.02c0,68.69 -56.19,124.88 -124.88,124.88l-516.37 0c-68.68,0 -124.87,-56.19 -124.87,-124.88l0 -0.02c0,-68.68 56.19,-124.87 124.87,-124.87l87.69 0c15.8,-5.06 29.9,-14.36 35.83,-44.51 -0.52,-4.92 -0.8,-9.92 -0.8,-14.98 0,-76.64 62.11,-138.75 138.75,-138.75zm-4.96 78.94c31.83,0 57.63,25.81 57.63,57.63 0,31.83 -25.8,57.64 -57.63,57.64 -31.83,0 -57.63,-25.81 -57.63,-57.64 0,-31.83 25.8,-57.63 57.63,-57.63z"/>
  <path class="fil3" d="M342.94 947.52l88.5 71.94c15.53,12.2 31.05,12.93 46.58,0l142.32 -156.81c10.12,-24.62 -28.82,-58.16 -50.2,-43.99l-111.28 127.83c-5.7,4.35 -11.39,4.69 -17.08,0.52l-58.48 -49.16c-25.32,-17.61 -63.1,16 -40.37,49.68z"/>
  <rect class="fil3" x="691.09" y="897.57" width="659.12" height="103.44" rx="391.29" ry="391.29"/>
  <path class="fil3" d="M342.94 1280.98l88.5 71.94c15.53,12.2 31.05,12.93 46.58,0l142.32 -156.81c10.12,-24.62 -28.82,-58.16 -50.2,-43.99l-111.28 127.84c-5.7,4.35 -11.39,4.68 -17.08,0.51l-58.48 -49.16c-25.32,-17.61 -63.1,16 -40.37,49.68z"/>
  <rect class="fil3" x="691.09" y="1231.02" width="659.12" height="103.44" rx="391.29" ry="391.29"/>
  <path class="fil3" d="M342.94 1589.53l88.5 71.94c15.53,12.2 31.05,12.93 46.58,0l142.32 -156.81c10.12,-24.62 -28.82,-58.16 -50.2,-43.99l-111.28 127.84c-5.7,4.35 -11.39,4.68 -17.08,0.51l-58.48 -49.16c-25.32,-17.61 -63.1,16 -40.37,49.68z"/>
  <rect class="fil3" x="691.09" y="1539.57" width="501.63" height="103.44" rx="297.79" ry="391.29"/>
  <path class="fil3" d="M342.94 1916.9l88.5 71.94c15.53,12.2 31.05,12.93 46.58,0l142.32 -156.81c10.12,-24.62 -28.82,-58.16 -50.2,-43.99l-111.28 127.84c-5.7,4.35 -11.39,4.68 -17.08,0.51l-58.48 -49.16c-25.32,-17.61 -63.1,16 -40.37,49.68z"/>
  <rect class="fil3" x="691.09" y="1866.95" width="394.4" height="103.44" rx="234.13" ry="391.29"/>
 </g>
</svg>
